<svg width="332" height="329" viewBox="0 0 332 329" fill="none" xmlns="http://www.w3.org/2000/svg">
<path d="M149.616 325.941C223.39 324.717 297.551 301.559 323.924 234.167C330.145 218.271 331.524 200.901 329.177 184.121C317.97 103.976 255.731 32.0228 181.401 33.2563C99.2724 34.6192 0.685064 76.4011 0.764959 166.062C0.844854 255.724 67.4878 327.304 149.616 325.941Z" fill="#35B3A9" fill-opacity="0.35"/>
<path d="M241.5 104C242.216 99.5492 242.456 96.975 243 92.5C243.888 85.201 243.204 81.6527 241.5 74.5C235.092 47.5956 222.794 16.5033 194 6.49995C174.459 -0.288773 153.411 -0.354867 133 1.99995C133 1.99995 115.348 5.26829 108 13C104.193 17.0058 102.879 20.0118 100.5 25C95.357 35.7841 95 47.5 94.5 55C94 62.5 95 82 94.5 86C94 90 85 97 85.5 107.5C86 118 92.5 125.5 96 129.5C99.5 133.5 95.5 152 100.5 155.5C105.5 159 107.5 161.5 107 169.5C106.5 177.5 103 188 103 188L93 196.5C93 196.5 76 213.5 74 227C72 240.5 71.5 269 72 274C72.5 279 105 301 105 301C120.734 307.41 136.286 310.816 153 314C184.5 320 206.5 303 212 299C217.5 295 218.783 294.589 223.5 292.5C229.827 289.697 226.5 290 240.5 287.5C250.972 285.63 256 280.235 256 270.5L254.5 248L251 228C251 228 240.197 216.239 243 208.5C244.371 204.715 248.552 204.412 249.5 200.5C253.5 184 256.769 177.345 255.5 162C254.574 150.797 248 134.5 248 134.5C244.141 125.068 239.544 116.157 241.5 104Z" fill="white"/>
<path d="M225.45 284.715C209.575 289.808 192.683 310.152 175.635 309.82C137.05 309.071 105.222 300.747 79.1077 274.318C80.5578 264.791 80.3065 227.565 82.34 222.319C88.8335 205.422 96.6363 200.267 108.148 192.663C109.197 191.97 110.277 191.256 111.389 190.512C113.229 189.972 115.154 189.205 117.023 188.461C118.562 187.848 120.064 187.251 121.45 186.806C123.525 186.14 125.966 185.56 128.352 184.993C129.496 184.721 130.628 184.453 131.7 184.179C131.7 196.47 152.254 257.879 175.635 238.504C178.753 235.877 194.995 189.668 194.995 184.132C195.759 184.318 196.558 184.509 197.373 184.703C199.427 185.192 201.583 185.706 203.544 186.243C203.977 186.374 204.551 186.527 205.143 186.684C206.038 186.923 206.972 187.171 207.512 187.369C209.383 187.996 210.079 188.14 210.314 188.546C210.535 188.929 210.346 189.547 210.346 191.028C209.219 192.727 207.889 194.553 206.492 196.471C200.098 205.25 192.299 215.957 196.175 225.274C199.529 233.25 208.656 239.218 219.993 241.047C218.221 238.109 224.433 238.604 223.477 235.314C221.824 224.993 231.885 213.077 237.647 208.62C237.9 209.961 238.688 211.519 239.75 213.619C242.069 218.205 245.694 225.375 247.897 238.504C249.099 245.577 251.014 265.982 250.045 274.318C246.04 276.458 241.923 278.416 237.712 280.184L225.45 284.715Z" fill="#FFCE70"/>
<path fill-rule="evenodd" clip-rule="evenodd" d="M148.637 160.099C167.161 166.956 177.936 157.66 191.829 147.858C192.349 142.105 190.601 138.009 191.829 131.106C195.043 114.079 209.078 102.712 207.991 92.2197C207.141 84.0282 189.088 53.2411 181.48 45.6018C162.577 27.194 123.071 34.5111 111.209 66.7248C107.35 75.5513 105.28 85.021 105.113 94.6127C106.72 119.785 119.81 153.518 148.637 160.099Z" fill="#FDD3D4"/>
<path fill-rule="evenodd" clip-rule="evenodd" d="M98.6118 61.9155C98.6118 73.2197 98.9427 81.5688 99.3683 92.5447C105.988 94.2333 104.475 97.2352 108.446 98.0326C106.177 90.4808 110.385 72.4223 112.796 65.6679C124.664 32.8342 158.773 32.9749 177.686 51.9247C185.44 59.711 194.876 89.6834 195.727 98.0326C196.815 108.727 196.673 113.934 193.458 131.289C192.134 138.324 193.883 142.499 193.458 148.362C195.3 151.74 196.88 155.253 198.186 158.869C199.781 162.106 201.581 165.239 203.576 168.25C205.578 171.239 207.349 174.375 208.871 177.631C210.268 180.561 210.963 183.772 210.904 187.012L210.195 189.826C210.195 189.826 210.195 190.249 209.911 190.483C203.812 199.864 190.999 213.373 195.727 224.724C199.084 232.698 207.956 237.564 219.304 239.393C217.53 236.456 224.012 238.052 223.056 234.762C221.401 224.443 231.472 212.529 237.24 208.073C252.228 191.609 250.22 155.087 250.22 155.087C250.22 155.087 234.308 115.882 237.24 101.06C241.353 80.0462 236.578 70.8275 228.304 51.9247C220.597 34.3821 216.673 30.2463 203.576 17.3473C187.406 1.44642 134.879 6.91289 127.744 9.28783C120.61 11.6628 101.638 19.6068 98.6118 61.9155Z" fill="#6B66A6"/>
<path fill-rule="evenodd" clip-rule="evenodd" d="M139.607 156.394C139.842 162.609 139.842 169.298 139.607 175.37C139.373 181.443 137.169 183.957 131.118 185.095C131.4 197.525 152.51 256.095 175.585 236.502C178.681 233.846 193.918 190.646 193.965 185.048C187.258 183.577 186.132 180.921 186.132 173.852C186.132 167.732 186.132 160.996 186.132 154.876L185.57 155.208C174.22 162.514 165.309 168.491 149.879 162.561C146.079 161.227 142.585 159.129 139.607 156.394Z" fill="#E8B7B8"/>
<path fill-rule="evenodd" clip-rule="evenodd" d="M101.591 147.67C103.599 153.831 106.488 154.268 109.525 158.114C117.116 167.29 113.443 175.899 110.162 186.299C113.688 185.381 116.724 183.983 120.251 182.934C123.777 181.885 127.45 181.274 130.879 180.487C137.197 179.438 139.645 177.647 139.743 171.529C139.841 165.411 139.743 159.643 139.743 154.05C134.846 153.438 116.284 134.735 115.255 128.486L104.235 127.787C100.849 133.954 99.9161 140.966 101.591 147.67V147.67Z" fill="#4B4680"/>
<path fill-rule="evenodd" clip-rule="evenodd" d="M115.949 127.787C107.962 116.923 107.575 101.731 106.946 98.3499C96.6366 81.4449 86.8595 101.821 95.3298 119.988C100.218 130.447 103.8 126.975 115.949 127.787Z" fill="#E8B7B8"/>
<path fill-rule="evenodd" clip-rule="evenodd" d="M185.296 154.731C185.296 160.646 185.597 167.157 185.597 173.072C185.597 179.904 186.799 182.472 193.964 183.893C196.819 184.535 200.126 185.223 203.032 185.956C204.184 186.277 206.288 186.736 207.24 187.057C211.098 188.249 210.096 187.653 210.246 190.633C210.246 190.633 210.246 189.854 210.547 189.991L211.298 187.24C211.361 184.072 210.623 180.934 209.144 178.07C207.53 174.887 205.655 171.821 203.533 168.899C201.419 165.956 199.512 162.893 197.821 159.729C196.438 156.194 194.763 152.761 192.811 149.458L189.154 151.888C187.952 153.31 186.449 153.814 185.296 154.731Z" fill="#4B4680"/>
</svg>
