<svg width="41" height="40" viewBox="0 0 41 40" fill="none" xmlns="http://www.w3.org/2000/svg">
<path d="M2.96541 18.1406C2.26771 18.3388 1.74501 18.6052 1.45561 18.9534C-0.0901204 20.8126 4.28718 22.8924 6.70289 22.7901C11.4311 22.59 17.9896 22.59 19.0708 22.59C20.9104 22.59 32.7864 21.1418 33.9439 21.1418C34.87 21.1418 38.5279 20.71 39.806 18.9551C40.5968 18.9524 41.203 16.0991 38.829 16.7691C27.3449 20.0106 14.4441 14.8801 2.96541 18.1406Z" fill="#FACD6E"/>
<path d="M22.3675 2.45692C22.1694 1.75923 21.9029 1.23653 21.5548 0.947124C19.6956 -0.598605 17.6158 3.7787 17.718 6.1944C17.9182 10.9227 17.9182 17.4811 17.9182 18.5623C17.9182 20.4019 19.3663 32.2779 19.3663 33.4355C19.3663 34.3615 19.7982 38.0194 21.5531 39.2975C21.5558 40.0884 24.4091 40.6946 23.739 38.3205C20.4976 26.8364 25.6281 13.9356 22.3675 2.45692Z" fill="#FACD6E"/>
</svg>
