<svg width="27" height="16" viewBox="0 0 27 16" fill="none" xmlns="http://www.w3.org/2000/svg">
<path fill-rule="evenodd" clip-rule="evenodd" d="M13.2103 15.9329H14.8241C14.8241 15.9329 15.3115 15.8771 15.5607 15.5986C15.7897 15.3426 15.7824 14.8623 15.7824 14.8623C15.7824 14.8623 15.7508 12.6129 16.7557 12.2817C17.7467 11.9552 19.0189 14.4556 20.3673 15.4171C21.3869 16.1444 22.1618 15.9852 22.1618 15.9852L25.7676 15.9329C25.7676 15.9329 27.6537 15.812 26.7593 14.2716C26.6861 14.1458 26.2383 13.1321 24.0783 11.0495C21.8172 8.86969 22.1203 9.22236 24.8437 5.45185C26.5023 3.15562 27.1653 1.75384 26.9581 1.15348C26.7607 0.581474 25.5407 0.732576 25.5407 0.732576L21.481 0.758648C21.481 0.758648 21.1798 0.716084 20.9567 0.85474C20.7385 0.990336 20.5985 1.30715 20.5985 1.30715C20.5985 1.30715 19.9557 3.08392 19.099 4.59522C17.2913 7.78374 16.5683 7.95252 16.2728 7.75421C15.5853 7.29271 15.7571 5.90061 15.7571 4.91135C15.7571 1.82119 16.2084 0.532787 14.8784 0.19928C14.4372 0.08867 14.1121 0.0154896 12.9835 0.00353982C11.5348 -0.0117678 10.309 0.00818192 9.61475 0.361441C9.15287 0.596388 8.79652 1.11981 9.01368 1.14993C9.28208 1.18706 9.88961 1.32029 10.2117 1.77556C10.6279 2.36367 10.6133 3.68388 10.6133 3.68388C10.6133 3.68388 10.8524 7.32145 10.055 7.77317C9.50788 8.08308 8.75716 7.45043 7.14544 4.55759C6.3198 3.07582 5.69619 1.43771 5.69619 1.43771C5.69619 1.43771 5.57611 1.13166 5.36162 0.967819C5.10149 0.769314 4.73802 0.706405 4.73802 0.706405L0.880031 0.732576C0.880031 0.732576 0.301017 0.749365 0.0882376 1.01098C-0.101058 1.24385 0.0731218 1.7249 0.0731218 1.7249C0.0731218 1.7249 3.0933 9.06483 6.51337 12.7637C9.64964 16.1555 13.2103 15.9329 13.2103 15.9329Z" fill="white"/>
</svg>
