<svg width="25" height="25" viewBox="0 0 25 25" fill="none" xmlns="http://www.w3.org/2000/svg">
<path d="M21.3421 3.66875C20.1857 2.50123 18.8083 1.57555 17.2902 0.945674C15.7721 0.315801 14.1437 -0.00564814 12.5 7.51002e-05C5.61302 7.51002e-05 0 5.61024 0 12.4937C0 14.7 0.580222 16.8432 1.66498 18.7343L0.278384 24.4602L6.52119 23.4745C8.35015 24.4705 10.4062 25 12.5 25C19.387 25 25 19.3898 25 12.5063C25 9.16545 23.7008 6.02628 21.3421 3.66875ZM12.5 22.882C10.4579 22.882 6.82391 21.2053 6.82391 21.2053C6.82391 21.2053 4.42537 21.8353 2.8885 22.239L3.93542 18.4065L3.68315 18.0157C2.646 16.3603 2.09528 14.4469 2.09384 12.4937C2.09384 6.7701 6.76085 2.10546 12.4874 2.10546C15.2624 2.10546 17.8734 3.18968 19.8285 5.15639C20.7965 6.11953 21.5637 7.26513 22.0855 8.52681C22.6073 9.78848 22.8734 11.1411 22.8683 12.5063C22.8935 18.23 18.2265 22.882 12.5 22.882ZM18.2013 15.116C17.886 14.9647 16.3471 14.2083 16.0696 14.0948C15.7795 13.994 15.5777 13.9436 15.3633 14.2461C15.1488 14.5613 14.556 15.2673 14.3794 15.469C14.2028 15.6833 14.0136 15.7085 13.6983 15.5447C13.3829 15.3934 12.3739 15.053 11.1882 13.994C10.2548 13.1619 9.63673 12.1407 9.44753 11.8256C9.27094 11.5104 9.4223 11.3465 9.58628 11.1826C9.72502 11.0439 9.90161 10.817 10.053 10.6405C10.2043 10.464 10.2674 10.3253 10.3683 10.1236C10.4692 9.90927 10.4188 9.73277 10.3431 9.58149C10.2674 9.4302 9.63673 7.89213 9.38446 7.26178C9.13219 6.65664 8.86731 6.73228 8.6781 6.71967H8.07265C7.85822 6.71967 7.53027 6.79531 7.24016 7.11049C6.96266 7.42567 6.1554 8.1821 6.1554 9.72017C6.1554 11.2582 7.278 12.7459 7.42936 12.9476C7.58073 13.1619 9.63673 16.3137 12.7649 17.6627C13.5091 17.9904 14.0893 18.1795 14.5434 18.3182C15.2876 18.5578 15.9687 18.5199 16.5111 18.4443C17.1165 18.356 18.3653 17.6879 18.6176 16.9567C18.8824 16.2254 18.8824 15.6077 18.7941 15.469C18.7059 15.3303 18.5166 15.2673 18.2013 15.116Z" fill="white"/>
</svg>
