<svg width="128" height="139" viewBox="0 0 128 139" fill="none" xmlns="http://www.w3.org/2000/svg">
<path d="M62.6348 129.43C36.2038 127.745 13.4093 112.817 0.931305 91.2711C5.42877 79.1732 13.9867 69.1592 26.5409 63.0766C28.049 62.3459 29.832 62.9568 30.8621 64.2706C36.7104 71.7298 47.6062 76.5796 57.6192 76.5796C67.6322 76.5796 78.5311 71.7298 84.38 64.2705C85.4101 62.9568 87.1932 62.3459 88.7012 63.0766C104.703 70.8298 114.209 84.9705 117.093 101.672C103.986 117.518 84.5618 128.031 62.6348 129.43Z" fill="#B0C8EB"/>
<path d="M8.98815 115.956C7.50652 114.277 6.92601 111.993 7.38038 109.8C11.0734 91.9823 21.1585 71.8786 37.5135 64.0966C37.9792 63.875 38.5315 64.0605 38.8019 64.4996C44.3472 73.5074 56.3096 79.4951 67.2382 79.4951C78.1668 79.4951 90.1328 73.5074 95.6783 64.4996C95.9487 64.0605 96.501 63.875 96.9667 64.0966C113.322 71.8786 123.407 91.9823 127.1 109.8C127.554 111.993 126.974 114.277 125.492 115.956C111.174 132.175 90.3791 138.002 67.2382 138.002C44.0973 138.002 23.3058 132.175 8.98815 115.956Z" fill="#7872B9"/>
<ellipse cx="60.948" cy="34.1925" rx="30.0083" ry="29.5238" fill="#B0C8EB"/>
<ellipse cx="67.2401" cy="30.8591" rx="30.4924" ry="30" fill="#7872B9"/>
</svg>
