<svg width="470" height="459" viewBox="0 0 470 459" fill="none" xmlns="http://www.w3.org/2000/svg">
<path d="M259.714 421.206C347.965 401.806 430.574 352.093 439.049 252.699C440.359 237.335 438.447 221.873 434.1 207.169C403.053 102.165 309.058 18.4493 220.416 37.9349C125.56 58.7864 22.1398 135.374 45.5591 250.502C68.9783 365.631 164.859 442.057 259.714 421.206Z" fill="#35B3A9" fill-opacity="0.35"/>
<path fill-rule="evenodd" clip-rule="evenodd" d="M256.089 74.2435C263.385 68.4495 272.086 64.6833 281.311 63.3266C351.133 59.5348 366.575 93.8488 374.009 104.715C381.444 115.581 392.882 131.513 388.879 153.326C384.875 175.139 392.882 185.037 404.892 230.089C416.902 275.141 368.862 291.726 388.879 304.88C408.895 318.033 438.062 313.458 448.928 320.893C459.794 328.328 464.448 338.459 458.492 348.823C456.358 352.433 451.076 355.069 447.314 357.054C441.634 360.051 435.81 362.867 430.022 365.682C413.236 373.733 396.306 381.494 379.376 389.112C362.446 396.729 345.95 404.057 329.019 411.061C323.412 413.407 317.732 415.718 312.017 417.775C310.184 418.485 308.312 419.088 306.409 419.58C303.795 420.309 301.021 420.233 298.451 419.364C295.392 420.698 292.006 421.1 288.719 420.519C285.319 420.158 281.882 419.616 278.518 419.075C267.231 417.234 255.98 415.068 244.766 412.902C211.34 406.368 218.9 410.194 185.619 403.119C152.337 396.043 119.164 388.895 86.0274 381.458C40.0994 371.07 24.5785 369.504 8.56525 354.063C-7.44799 338.622 2.84623 324.324 8.56525 322.609C14.2843 320.893 90.3851 311.462 89.7749 301.448C88.1447 274.695 65.9826 223.735 65.6244 202.761C65.9028 200.202 67.0351 197.811 68.8393 195.971C70.6434 194.131 73.0149 192.95 75.5727 192.617C78.0774 192.31 80.6142 192.383 83.0971 192.833L196.652 208.862C202.296 209.62 208.12 210.234 213.691 211.281C218.6 211.893 223.206 213.983 226.895 217.273C230.172 220.847 232.324 225.304 233.081 230.089C234.275 235.432 235.107 240.919 236.156 246.334C237.205 251.749 240.243 276.125 241.328 281.432C243.082 279.952 242.554 262.054 244.76 261.415C245.447 260.746 246.769 257.757 247.551 257.201C251.422 252.255 261.479 228.609 264.373 219.837C263.467 217.262 261.849 214.997 259.706 213.302C254.611 209.603 250.592 204.62 248.058 198.862C247.551 197.707 247.081 196.48 246.575 195.252C246.068 194.025 245.128 193.303 244.477 192.328C242.941 190.692 241.298 189.16 239.557 187.743C238.363 186.624 237.133 185.505 235.939 184.133C234.718 182.981 233.754 181.584 233.112 180.034C232.469 178.484 232.161 176.816 232.209 175.139C232.257 173.463 232.659 171.815 233.389 170.304C234.119 168.793 235.161 167.453 236.446 166.372C235.142 159.489 235.653 152.385 237.929 145.759C234.636 142.245 232.756 137.644 232.647 132.835C232.551 130.022 232.708 127.207 233.117 124.423C233.117 123.16 233.588 121.499 233.624 120.235C233.624 111.355 237.748 104.279 241.98 96.7702C244.368 92.5465 245.598 87.6729 247.696 83.377C249.568 79.5993 252.479 76.4314 256.089 74.2435Z" fill="white"/>
<path fill-rule="evenodd" clip-rule="evenodd" d="M256.993 131.246C240.606 140.885 259.959 159.188 261.587 171.714C264.011 192.58 275.479 204.927 294.76 212.869C312.848 220.089 327.789 184.386 332.021 172.942C333.794 168.14 337.339 131.21 332.709 125.542C322.399 113.051 280.254 117.275 266.254 125.037C259.851 128.647 261.624 123.629 254.895 131.751L256.993 131.246Z" fill="#FCD2D3"/>
<path fill-rule="evenodd" clip-rule="evenodd" d="M294.58 214.133C267.665 203.772 264.228 190.812 259.562 173.664C258.513 169.765 251.784 158.141 253.81 171.751C253.81 172.653 255.727 178.971 255.691 180.234C254.208 179.187 252.797 178.032 251.314 176.985C247.696 174.566 243.247 172.076 242.559 175.541C242.234 177.094 250.699 183.231 252.869 186.371C254.974 188.802 256.55 191.641 257.5 194.71C262.456 206.371 270.451 203.663 275.045 219.512C275.479 220.956 258.585 262.669 252.942 265.99C247.298 269.312 247.047 275.835 247.047 284.291C247.047 292.748 247.989 291.739 249.907 294.014C253.288 297.217 260.171 298.437 264.776 299.161C272.011 300.893 272.44 297.777 274.792 291.604C276.745 285.972 299.319 215.035 294.58 214.133Z" fill="#FCD2D3"/>
<path fill-rule="evenodd" clip-rule="evenodd" d="M326.049 213.376C319.013 220.198 316.08 221.889 308.25 227.787C304.727 225.678 301.398 223.262 298.302 220.567L299.134 216.523C312.808 216.523 322.214 203.948 325.398 192.215C324.254 208.229 324.826 207.085 326.049 213.376ZM326.049 218.003C323.947 219.25 321.982 220.714 320.188 222.372C305.718 235.909 307.093 233.851 297.47 224.79C294.901 237.462 293.165 245.729 290.994 254.718C289.801 259.699 277.646 296.269 277.935 296.377C281.842 297.424 315.63 293.923 321.744 294.067C328.689 294.067 342.291 243.31 344.462 239.916C347.465 235.007 339.651 236.306 337.661 234.754C332.235 230.639 326.157 224.646 326.193 218.003H326.049Z" fill="#FCD2D3"/>
<path fill-rule="evenodd" clip-rule="evenodd" d="M331.515 325.358C340.885 324.203 351.133 334.619 355.136 316.318C316.819 308.311 344.27 272.282 351.133 264.275C354.484 260.366 353.421 249.406 345.986 249.406C341.411 259.7 331.913 295.503 327.753 297.922C327.464 297.922 277.42 302.592 272.211 302.592C270.053 302.592 254.482 300.876 246.476 297.445C243.94 297.595 244.76 288.867 239.613 288.867C237.666 290.688 242.284 303.157 241.9 304.308C242.411 304.97 241.328 306.024 245.128 307.488C248.927 308.953 330.14 316.441 330.14 320.051C330.321 320.34 331.443 324.383 331.515 325.358Z" fill="#FCD2D3"/>
<path fill-rule="evenodd" clip-rule="evenodd" d="M236.408 128.401C236.408 140.334 246.026 152.606 246.475 164.192C255.626 177.346 244.128 162.75 255.626 141.316C269.125 116.153 284.221 123.812 311.1 128.401C319.285 136.62 327.931 166.245 328.829 175.059C329.977 186.347 324.254 188.784 327.113 205.941C329.973 223.098 327.113 219.095 333.976 228.245C335.66 231.662 347.312 235.933 349.417 239.111C351.531 242.267 351.19 247.113 352.797 250.55C354.271 253.643 355.006 257.032 354.944 260.452L354.195 263.423C354.195 263.423 354.195 263.869 353.895 264.116C347.457 274.019 333.932 288.279 338.923 300.261C342.466 308.678 351.832 313.815 363.81 315.746C361.938 312.645 368.78 314.33 367.77 310.857C366.023 299.964 376.654 287.388 382.743 282.684C398.565 265.305 396.445 226.752 396.445 226.752C396.445 226.752 379.649 185.368 382.743 169.722C387.085 147.54 382.045 137.808 373.31 117.855C365.175 99.3367 361.033 94.971 347.208 81.3549C330.138 64.57 274.691 70.3403 267.16 72.8473C259.629 75.3543 239.602 83.7401 236.408 128.401Z" fill="#084B4B"/>
<path fill-rule="evenodd" clip-rule="evenodd" d="M336.254 263.013C331.371 277.453 325.402 293.481 321.531 293.409C315.417 293.409 281.738 296.767 277.722 295.72C277.505 295.72 283.908 276.189 287.851 263.735C295.132 268.242 303.56 270.557 312.126 270.403C320.693 270.25 329.032 267.633 336.146 262.868L336.254 263.013Z" fill="#4B4680"/>
<path fill-rule="evenodd" clip-rule="evenodd" d="M81.6502 202.941L195.242 218.97C224.869 223.158 220.565 219.873 226.099 248.284C232.068 278.752 238.218 307.091 244.187 336.91C245.055 341.206 246.828 352.903 244.73 353.589L243.717 353.877C240.086 354.601 236.325 354.288 232.864 352.975C195.097 342.506 153.061 334.166 113.666 325.647C105.092 323.77 106.792 325.322 104.586 316.766C95.614 281.532 85.4486 246.551 77.5985 211.028C76.043 203.808 73.0766 201.75 81.6502 202.941ZM154.4 273.425C149.299 267.18 131.681 261.46 144.306 277.381C147.596 280.961 152.515 286.365 156.687 288.866C159.547 286.579 165.541 278.68 166.41 276.37C170.606 264.276 167.676 262.595 154.4 273.425ZM155.557 277.453C151.939 272.904 141.231 268.428 147.526 277.453C149.857 280.135 151.868 283.126 154.971 284.863C160.651 288.509 174.802 261.749 155.557 277.453Z" fill="#D1D0D9"/>
<path fill-rule="evenodd" clip-rule="evenodd" d="M242.849 314.745C244.621 321.712 245.815 328.246 246.973 334.889C250.59 356.26 250.229 350.484 270.161 343.625C280.833 340.015 290.13 335.863 303.624 330.737C313.789 326.91 326.595 323.264 314.476 321.243C300.73 318.968 287.706 317.38 275.081 315.322C265.864 313.322 256.521 311.947 247.117 311.207C244.043 311.098 242.089 311.676 242.849 314.745Z" fill="#D1D0D9"/>
<path fill-rule="evenodd" clip-rule="evenodd" d="M250.446 357.487C250.446 358.173 250.446 358.859 250.446 359.581C251.025 365.032 254.425 361.531 261.841 359.365C279.929 354.166 294.942 345.141 312.813 337.452C316.72 335.791 321.169 335.177 321.205 331.278V328.932C321.205 324.022 316.756 327.199 311.691 329.149L257.211 350.412C250.952 352.867 250.084 351.35 250.446 357.487Z" fill="#D1D0D9"/>
<path fill-rule="evenodd" clip-rule="evenodd" d="M247.66 358.245C248.167 365.465 245.309 363.877 234.999 361.422L116.306 333.264C114.1 332.722 106.937 330.953 106.937 329.654V328.354C106.177 325.177 112.797 327.127 117.79 328.354L242.053 356.332L245.2 355.177C248.492 353.877 247.407 354.094 247.66 358.245Z" fill="#D1D0D9"/>
<path fill-rule="evenodd" clip-rule="evenodd" d="M340.677 343.103C342.792 341.947 358.266 346.067 361.724 341.591C369.679 331.159 364.778 329.974 377.971 331.396C393.076 332.997 377.031 326.15 401.267 329.677C420.568 332.641 435.774 332.641 435.774 335.19C435.774 343.784 310.197 388.062 295.125 388.922C274.985 390.077 88.1181 354.457 71.6673 350.186C55.2166 345.915 37.4295 342.904 26.0296 337.933C21.2667 335.857 14.3492 330.668 14.8856 329.013C15.4382 327.307 95.3026 310.205 99.4973 310.027C101.023 309.962 101.213 319.749 103.501 324.896C99.259 329.645 87.4874 330.102 88.6312 332.903C90.9188 338.505 131.066 345.739 137.243 346.628C164.6 350.57 243.297 373.896 264.277 373.896C266.593 373.777 326.343 351.046 340.677 343.103Z" fill="#F0E5F6"/>
<path fill-rule="evenodd" clip-rule="evenodd" d="M12.6964 348.968C12.1427 342.653 11.7841 337.356 15.9122 339.029C36.6287 347.499 152.261 371.782 178.088 377.363C230.699 388.806 279.39 394.988 288.529 399.351C290.034 400.027 290.531 408.424 287.432 411.541C283.827 415.105 12.8877 350.927 12.6964 348.968Z" fill="#F0E5F6"/>
<path fill-rule="evenodd" clip-rule="evenodd" d="M297.51 393.949C298.704 401.458 297.293 400.05 298.595 407.631C299.21 411.241 443.587 346.043 446.12 341.567C447.246 337.734 447.321 333.67 446.337 329.798C445.866 327.452 438.161 333.408 436.316 334.094C415.841 343.191 309.086 390.627 299.862 391.133C299.517 391.15 299.179 391.238 298.87 391.392C298.561 391.545 298.288 391.761 298.067 392.026C297.846 392.291 297.682 392.598 297.587 392.929C297.491 393.26 297.465 393.607 297.51 393.949V393.949Z" fill="#F0E5F6"/>
</svg>
