<svg width="411" height="413" viewBox="0 0 411 413" fill="none" xmlns="http://www.w3.org/2000/svg">
<path d="M222.779 378.278C301.333 361.01 374.911 316.998 383.619 229.306C385.143 213.96 383.203 198.465 378.715 183.806C350.165 90.5608 266.46 16.7085 187.486 34.0688C102.298 52.7952 9.41714 121.577 30.4496 224.972C51.4821 328.367 137.591 397.005 222.779 378.278Z" fill="#35B3A9" fill-opacity="0.35"/>
<path d="M280.5 155C281.216 150.549 281.456 147.975 282 143.5C282.888 136.201 282.204 132.653 280.5 125.5C274.092 98.5956 261.794 67.5033 233 57.5C213.459 50.7112 192.411 50.6451 172 53C172 53 154.348 56.2683 147 64C143.193 68.0058 141.879 71.0118 139.5 76C134.357 86.7841 134 98.5 133.5 106C133 113.5 134 133 133.5 137C133 141 124 148 124.5 158.5C125 169 131.5 176.5 135 180.5C138.5 184.5 134.5 203 139.5 206.5C144.5 210 146.5 212.5 146 220.5C145.5 228.5 142 239 142 239L132 247.5C132 247.5 115 264.5 113 278C111 291.5 110.5 320 111 325C111.5 330 144 352 144 352C159.734 358.41 175.286 361.816 192 365C223.5 371 245.5 354 251 350C256.5 346 257.783 345.589 262.5 343.5C268.827 340.697 265.5 341 279.5 338.5C289.972 336.63 295 331.235 295 321.5L293.5 299L290 279C290 279 279.197 267.239 282 259.5C283.371 255.715 287.552 255.412 288.5 251.5C292.5 235 295.769 228.345 294.5 213C293.574 201.797 287 185.5 287 185.5C283.141 176.068 278.544 167.157 280.5 155Z" fill="white"/>
<path d="M264.45 335.715C248.575 340.808 231.683 361.152 214.635 360.82C176.05 360.071 144.222 351.747 118.108 325.318C119.558 315.791 119.307 278.565 121.34 273.319C127.834 256.422 135.636 251.267 147.148 243.663C148.197 242.97 149.277 242.256 150.389 241.512C152.229 240.972 154.154 240.205 156.023 239.461C157.562 238.848 159.064 238.251 160.45 237.806C162.525 237.14 164.966 236.56 167.352 235.993C168.496 235.721 169.628 235.453 170.7 235.179C170.7 247.47 191.254 308.879 214.635 289.504C217.753 286.877 233.995 240.668 233.995 235.132C234.759 235.318 235.558 235.509 236.373 235.703C238.427 236.192 240.583 236.706 242.544 237.243C242.977 237.374 243.551 237.527 244.143 237.684C245.038 237.923 245.972 238.171 246.512 238.369C248.383 238.996 249.079 239.14 249.314 239.546C249.535 239.929 249.346 240.547 249.346 242.028C248.219 243.727 246.889 245.553 245.492 247.471C239.098 256.25 231.299 266.957 235.175 276.274C238.529 284.25 247.656 290.218 258.993 292.047C257.221 289.109 263.433 289.604 262.477 286.314C260.824 275.993 270.885 264.077 276.647 259.62C276.9 260.961 277.688 262.519 278.75 264.619C281.069 269.205 284.694 276.375 286.897 289.504C288.099 296.577 290.014 316.982 289.045 325.318C285.04 327.458 280.923 329.416 276.712 331.184L264.45 335.715Z" fill="#FFCE70"/>
<path fill-rule="evenodd" clip-rule="evenodd" d="M187.637 211.099C206.161 217.956 216.936 208.66 230.829 198.858C231.349 193.105 229.601 189.009 230.829 182.106C234.043 165.079 248.078 153.712 246.991 143.22C246.141 135.028 228.088 104.241 220.48 96.6018C201.577 78.194 162.071 85.5111 150.209 117.725C146.35 126.551 144.28 136.021 144.113 145.613C145.72 170.785 158.81 204.518 187.637 211.099Z" fill="#FDD3D4"/>
<path fill-rule="evenodd" clip-rule="evenodd" d="M137.612 112.915C137.612 124.22 137.943 132.569 138.368 143.545C144.988 145.233 143.475 148.235 147.446 149.033C145.177 141.481 149.385 123.422 151.796 116.668C163.664 83.8342 197.773 83.9749 216.686 102.925C224.44 110.711 233.876 140.683 234.727 149.033C235.815 159.727 235.673 164.934 232.458 182.289C231.134 189.324 232.883 193.499 232.458 199.362C234.3 202.74 235.88 206.253 237.186 209.869C238.781 213.106 240.581 216.239 242.576 219.25C244.578 222.239 246.349 225.375 247.871 228.631C249.268 231.561 249.963 234.772 249.904 238.012L249.195 240.826C249.195 240.826 249.195 241.249 248.911 241.483C242.812 250.864 229.999 264.373 234.727 275.724C238.084 283.698 246.956 288.564 258.304 290.393C256.53 287.456 263.012 289.052 262.056 285.762C260.401 275.443 270.472 263.529 276.24 259.073C291.228 242.609 289.22 206.087 289.22 206.087C289.22 206.087 273.308 166.882 276.24 152.06C280.353 131.046 275.578 121.828 267.304 102.925C259.597 85.3821 255.673 81.2463 242.576 68.3473C226.406 52.4464 173.879 57.9129 166.744 60.2878C159.61 62.6628 140.638 70.6068 137.612 112.915Z" fill="#6B66A6"/>
<path fill-rule="evenodd" clip-rule="evenodd" d="M178.607 207.394C178.842 213.609 178.842 220.298 178.607 226.37C178.373 232.443 176.169 234.957 170.118 236.096C170.4 248.525 191.51 307.096 214.585 287.503C217.681 284.846 232.918 241.646 232.965 236.048C226.258 234.578 225.132 231.921 225.132 224.852C225.132 218.732 225.132 211.996 225.132 205.876L224.57 206.208C213.22 213.514 204.309 219.491 188.879 213.561C185.079 212.227 181.585 210.129 178.607 207.394Z" fill="#E8B7B8"/>
<path fill-rule="evenodd" clip-rule="evenodd" d="M140.591 198.67C142.599 204.831 145.488 205.268 148.525 209.114C156.116 218.29 152.443 226.899 149.162 237.299C152.688 236.381 155.724 234.983 159.251 233.934C162.777 232.885 166.45 232.274 169.879 231.487C176.197 230.438 178.645 228.647 178.743 222.529C178.841 216.411 178.743 210.643 178.743 205.05C173.846 204.438 155.284 185.735 154.255 179.486L143.235 178.787C139.849 184.954 138.916 191.966 140.591 198.67V198.67Z" fill="#4B4680"/>
<path fill-rule="evenodd" clip-rule="evenodd" d="M154.949 178.787C146.962 167.923 146.575 152.731 145.946 149.35C135.637 132.445 125.86 152.821 134.33 170.988C139.218 181.447 142.8 177.975 154.949 178.787Z" fill="#E8B7B8"/>
<path fill-rule="evenodd" clip-rule="evenodd" d="M224.296 205.731C224.296 211.646 224.597 218.157 224.597 224.072C224.597 230.904 225.799 233.472 232.964 234.893C235.819 235.535 239.126 236.223 242.032 236.956C243.184 237.277 245.288 237.736 246.24 238.057C250.098 239.249 249.096 238.653 249.246 241.633C249.246 241.633 249.246 240.854 249.547 240.991L250.298 238.24C250.361 235.072 249.623 231.934 248.144 229.07C246.53 225.887 244.655 222.821 242.533 219.899C240.419 216.956 238.512 213.893 236.821 210.729C235.438 207.194 233.763 203.761 231.811 200.458L228.154 202.888C226.952 204.31 225.449 204.814 224.296 205.731Z" fill="#4B4680"/>
</svg>
