<svg width="25" height="25" viewBox="0 0 25 25" fill="none" xmlns="http://www.w3.org/2000/svg">
<path d="M12.4904 6.06006C10.7878 6.06006 9.15504 6.73533 7.95117 7.93733C6.74731 9.13933 6.07098 10.7696 6.07098 12.4695C6.07098 14.1693 6.74731 15.7996 7.95117 17.0016C9.15504 18.2036 10.7878 18.8789 12.4904 18.8789C14.1929 18.8789 15.8257 18.2036 17.0295 17.0016C18.2334 15.7996 18.9097 14.1693 18.9097 12.4695C18.9097 10.7696 18.2334 9.13933 17.0295 7.93733C15.8257 6.73533 14.1929 6.06006 12.4904 6.06006V6.06006ZM12.4904 16.632C11.3843 16.632 10.3236 16.1933 9.54146 15.4124C8.75936 14.6315 8.31998 13.5724 8.31998 12.4681C8.31998 11.3637 8.75936 10.3046 9.54146 9.52376C10.3236 8.74288 11.3843 8.30418 12.4904 8.30418C13.5964 8.30418 14.6572 8.74288 15.4392 9.52376C16.2213 10.3046 16.6607 11.3637 16.6607 12.4681C16.6607 13.5724 16.2213 14.6315 15.4392 15.4124C14.6572 16.1933 13.5964 16.632 12.4904 16.632V16.632Z" fill="white"/>
<path d="M19.1639 7.31855C19.9904 7.31855 20.6604 6.64955 20.6604 5.82431C20.6604 4.99907 19.9904 4.33008 19.1639 4.33008C18.3373 4.33008 17.6673 4.99907 17.6673 5.82431C17.6673 6.64955 18.3373 7.31855 19.1639 7.31855Z" fill="white"/>
<path d="M24.3378 4.30528C24.0164 3.47663 23.5253 2.72411 22.8958 2.09589C22.2664 1.46767 21.5125 0.977588 20.6825 0.657019C19.7112 0.292965 18.685 0.0961149 17.6477 0.0748502C16.3108 0.0166333 15.8874 0 12.4972 0C9.10706 0 8.67253 -1.3942e-07 7.34673 0.0748502C6.31024 0.0950276 5.28481 0.291918 4.31475 0.657019C3.48447 0.977214 2.7304 1.46716 2.10092 2.09543C1.47143 2.7237 0.980437 3.47641 0.659429 4.30528C0.294737 5.27502 0.0980322 6.29967 0.0777432 7.33533C0.0180475 8.66877 0 9.09154 0 12.4778C0 15.8627 -1.03434e-08 16.2938 0.0777432 17.6203C0.0985673 18.6571 0.294314 19.6801 0.659429 20.6518C0.981338 21.4803 1.47281 22.2327 2.10245 22.8609C2.73209 23.4891 3.48604 23.9792 4.31614 24.3C5.28436 24.6787 6.31021 24.8896 7.34951 24.9238C8.68642 24.982 9.10984 25 12.5 25C15.8902 25 16.3247 25 17.6505 24.9238C18.6877 24.9027 19.7138 24.7063 20.6853 24.343C21.5151 24.0217 22.2687 23.5312 22.8981 22.9028C23.5275 22.2744 24.0188 21.5219 24.3406 20.6933C24.7057 19.7231 24.9014 18.7001 24.9223 17.6633C24.982 16.3298 25 15.9071 25 12.5208C25 9.13451 25 8.70481 24.9223 7.3783C24.9061 6.328 24.7084 5.28838 24.3378 4.30528V4.30528ZM22.6469 17.5177C22.6379 18.3166 22.4919 19.1079 22.2151 19.8575C22.0066 20.3965 21.6875 20.886 21.2781 21.2945C20.8688 21.7029 20.3784 22.0213 19.8384 22.2292C19.096 22.5042 18.3118 22.65 17.52 22.6602C16.2011 22.7212 15.8291 22.7365 12.4472 22.7365C9.06264 22.7365 8.71696 22.7365 7.37311 22.6602C6.5817 22.6506 5.79788 22.5047 5.05609 22.2292C4.51423 22.0226 4.02183 21.7048 3.61074 21.2962C3.19966 20.8877 2.87905 20.3976 2.66965 19.8575C2.39678 19.116 2.25082 18.3339 2.23789 17.5441C2.1782 16.2273 2.16432 15.8558 2.16432 12.4792C2.16432 9.10124 2.16432 8.7561 2.23789 7.41295C2.24687 6.61458 2.3929 5.82366 2.66965 5.07457C3.09307 3.98093 3.96074 3.12015 5.05609 2.70154C5.79824 2.42728 6.58183 2.2815 7.37311 2.27046C8.69336 2.21086 9.06403 2.19422 12.4472 2.19422C15.8305 2.19422 16.1775 2.19422 17.52 2.27046C18.3119 2.27997 19.0962 2.4258 19.8384 2.70154C20.3783 2.90984 20.8687 3.22855 21.278 3.63721C21.6873 4.04588 22.0065 4.53547 22.2151 5.07457C22.488 5.81608 22.634 6.59814 22.6469 7.388C22.7066 8.7062 22.7218 9.07629 22.7218 12.4543C22.7218 15.8308 22.7218 16.194 22.6622 17.5191H22.6469V17.5177Z" fill="white"/>
</svg>
