<svg width="25" height="25" viewBox="0 0 25 25" fill="none" xmlns="http://www.w3.org/2000/svg">
<path d="M1.68456 10.7471C9.37744 6.68153 19.3326 1.7248 20.7068 1.03876C24.3115 -0.756869 25.4175 -0.412744 24.866 3.56381C24.47 6.42196 23.3272 15.8847 22.4164 21.7745C21.8759 25.2672 20.6633 25.6812 18.7567 24.1701C17.8397 23.4429 13.2116 19.7664 12.2072 18.9031C11.2903 18.1163 10.0257 17.17 11.6116 15.306C12.176 14.642 15.8755 10.3985 18.7579 7.09551C19.1355 6.66167 18.6612 5.94916 18.2253 6.29696C14.3403 9.39188 8.95387 13.6876 8.26832 14.2471C7.23264 15.092 6.23798 15.4795 4.45248 14.8633C3.10341 14.3979 1.78556 13.8427 1.27262 13.6309C-0.702626 12.8162 -0.233757 11.7611 1.68456 10.7471Z" fill="white"/>
</svg>
