<svg width="25" height="21" viewBox="0 0 25 21" fill="none" xmlns="http://www.w3.org/2000/svg">
<path d="M2.40084 8.77581C9.73217 5.55056 19.2195 1.61831 20.5291 1.07406C23.9643 -0.350436 25.0184 -0.0774363 24.4928 3.07723C24.1154 5.34465 23.0263 12.8516 22.1583 17.5241C21.6433 20.2949 20.4877 20.6233 18.6706 19.4246C17.7968 18.8476 13.3862 15.931 12.4289 15.2461C11.5551 14.622 10.3499 13.8712 11.8613 12.3925C12.3992 11.8657 15.9248 8.49931 18.6718 5.87898C19.0317 5.53481 18.5796 4.96956 18.1643 5.24548C14.4618 7.70073 9.3285 11.1086 8.67517 11.5525C7.68817 12.2227 6.74025 12.5301 5.03867 12.0413C3.753 11.6721 2.49709 11.2316 2.00825 11.0636C0.125836 10.4173 0.572669 9.58023 2.40084 8.77581Z" fill="white"/>
</svg>
